<svg id="Layer_1" data-name="Layer 1" xmlns="http://www.w3.org/2000/svg" viewBox="0 0 125.12 79.6"><defs><style>.cls-1{fill:#1e4b65;}</style></defs><title>Artboard 2 copy@150x-100</title><path class="cls-1" d="M90.81,54.7H70.92l-.7.88A22,22,0,0,1,63.91,61a23,23,0,0,0,7.37,1.21h27A7.51,7.51,0,0,0,90.81,54.7Z"/><path class="cls-1" d="M86.34,12.15H68.28a20,20,0,0,0-20,20v7A22.93,22.93,0,0,0,52.84,53l.79-.18a13.29,13.29,0,0,0,6-3,14.9,14.9,0,0,1-3.87-10v-5a15,15,0,0,1,15-15H85.3a5.51,5.51,0,0,1,5.51,5.51V47.24h7.51V24.13A12,12,0,0,0,86.34,12.15Z"/><path class="cls-1" d="M51.32,18.79a21.78,21.78,0,0,1,7.26-5.92,20.33,20.33,0,0,0-5.32-.72h-18a12,12,0,0,0-12,12V62.21h0a7.51,7.51,0,0,0,7.51-7.51V25.17a5.51,5.51,0,0,1,5.5-5.51H50.63Z"/><path class="cls-1" d="M70,21.25l-.87.1a13.38,13.38,0,0,0-7.27,3.27A15,15,0,0,1,65.78,34.7v5a15,15,0,0,1-15,15H38.33v7.51H53.26a20,20,0,0,0,20-20v-10A19.92,19.92,0,0,0,70,21.25Z"/></svg>